<svg width="515" height="667" viewBox="0 0 515 667" fill="none" xmlns="http://www.w3.org/2000/svg">
<circle cx="245" cy="311" r="180" fill="#F7F7F7"/>
<path d="M244.397 464.787C244.397 464.787 244.397 424.958 244.397 508.958C244.397 533.65 253.001 561.287 197 558.287C127.501 558.287 50.5004 560.787 28.0001 560.787C5.49989 560.787 5.49989 572.787 6.11295 590.287C6.11224 622.787 6.11295 666.287 6.11295 666.287" stroke="#fac310" stroke-width="11"/>
<path d="M252.634 441.844C251.238 441.997 249.852 442.065 248.448 442.087C247.845 442.097 247.243 442.112 246.641 442.128C237.481 442.372 229.665 441.054 222.435 434.909C216.279 429.067 213.355 421.908 213.064 413.483C213.019 411.631 213.007 409.78 213.007 407.928C213.006 406.766 212.994 405.605 212.981 404.443C212.978 403.704 212.977 402.965 212.976 402.225C212.971 401.878 212.966 401.532 212.961 401.174C212.963 400.855 212.965 400.536 212.967 400.207C212.967 399.927 212.966 399.646 212.965 399.357C213.127 398.66 213.127 398.66 213.639 398.23C214.761 397.731 215.702 397.774 216.93 397.773C217.182 397.771 217.434 397.77 217.694 397.769C218.538 397.765 219.383 397.768 220.227 397.77C220.833 397.769 221.438 397.768 222.043 397.766C223.687 397.762 225.332 397.763 226.976 397.766C228.347 397.768 229.718 397.767 231.09 397.767C234.324 397.766 237.557 397.769 240.791 397.775C244.131 397.781 247.471 397.78 250.811 397.774C253.676 397.77 256.541 397.771 259.406 397.775C261.119 397.778 262.831 397.779 264.543 397.775C266.152 397.771 267.761 397.773 269.37 397.781C269.962 397.783 270.554 397.782 271.146 397.779C271.951 397.775 272.756 397.78 273.561 397.786C274.013 397.786 274.464 397.787 274.929 397.787C275.984 397.953 275.984 397.953 276.524 398.573C276.819 399.392 276.88 400.045 276.887 400.916C276.892 401.243 276.897 401.571 276.901 401.909C276.902 402.44 276.902 402.44 276.903 402.982C276.905 403.351 276.908 403.72 276.91 404.1C276.914 404.884 276.916 405.668 276.916 406.452C276.917 407.631 276.93 408.81 276.943 409.989C277.028 425.551 269.016 439.299 252.634 441.844Z" fill="#fac310"/>
<path d="M283.339 390.828C283.112 391.066 282.884 391.304 282.65 391.548C280.662 392.951 278.309 393.075 275.941 393.054C275.521 393.055 275.521 393.055 275.092 393.056C274.161 393.057 273.23 393.053 272.299 393.049C271.628 393.049 270.957 393.049 270.287 393.049C268.471 393.049 266.655 393.044 264.839 393.039C262.937 393.033 261.034 393.032 259.132 393.03C255.939 393.026 252.746 393.019 249.553 393.01C245.862 393 242.171 392.994 238.48 392.991C234.927 392.988 231.374 392.982 227.821 392.974C226.31 392.971 224.799 392.969 223.288 392.967C221.509 392.965 219.73 392.961 217.951 392.955C217.298 392.953 216.645 392.952 215.993 392.951C215.102 392.951 214.211 392.948 213.319 392.943C213.062 392.944 212.804 392.945 212.538 392.945C209.997 392.926 208.254 392.495 206.334 390.845C203.696 388.077 204.371 382.922 204.341 379.368C204.333 379.006 204.325 378.645 204.317 378.272C204.297 375.604 204.57 373.726 206.287 371.595C208.342 369.939 210.301 369.57 212.89 369.598C213.319 369.596 213.319 369.596 213.757 369.595C214.711 369.592 215.664 369.598 216.617 369.603C217.303 369.603 217.988 369.602 218.674 369.601C220.533 369.6 222.391 369.605 224.249 369.612C226.196 369.618 228.142 369.619 230.088 369.62C233.356 369.624 236.624 369.632 239.892 369.642C243.669 369.654 247.445 369.659 251.222 369.661C254.857 369.663 258.493 369.669 262.128 369.678C263.674 369.681 265.221 369.683 266.767 369.684C268.588 369.685 270.409 369.69 272.229 369.698C272.897 369.7 273.565 369.701 274.233 369.701C275.145 369.7 276.058 369.705 276.97 369.711C277.233 369.709 277.497 369.708 277.768 369.707C280.002 369.73 281.639 370.112 283.396 371.514C285.901 374.284 285.579 377.954 285.546 381.445C285.548 381.943 285.551 382.441 285.554 382.938C285.535 388.626 285.535 388.626 283.339 390.828Z" fill="#fac310"/>
<path d="M254.497 458.942C253.762 459.094 253.762 459.094 252.894 459.129C252.545 459.143 252.196 459.157 251.836 459.172C251.2 459.185 251.2 459.185 250.552 459.2C250.296 459.206 250.04 459.212 249.777 459.218C247.957 459.258 246.137 459.277 244.317 459.284C243.671 459.287 243.025 459.293 242.38 459.303C241.436 459.316 240.493 459.32 239.549 459.323C239.263 459.329 238.977 459.334 238.682 459.34C236.789 459.332 235.578 458.98 233.981 457.863C232.856 455.794 233.097 453.43 233.134 451.139C233.137 450.748 233.14 450.358 233.143 449.955C233.151 448.996 233.163 448.038 233.178 447.079C234.58 446.464 235.525 446.617 237.01 446.913C239.772 447.395 242.446 447.474 245.244 447.456C245.726 447.455 246.208 447.454 246.705 447.453C249.97 447.426 253.123 447.252 256.322 446.583C256.779 447.768 256.915 448.748 256.913 450.014C256.913 450.361 256.913 450.709 256.913 451.066C256.91 451.426 256.907 451.786 256.904 452.156C256.905 452.519 256.905 452.881 256.905 453.255C256.897 455.794 256.801 457.428 254.497 458.942Z" fill="#fac310"/>
<path d="M514.5 6.0016C514.5 6.0016 359.5 5.99941 291 6.00014C235 6.00014 243.603 30.6367 243.603 55.3291C243.603 139.329 243.603 159.499 243.603 159.499" stroke="#fac310" stroke-width="11"/>
<path d="M261.927 272.206C259.837 273.027 257.476 272.953 255.366 272.217C254.503 271.773 253.902 271.304 253.208 270.629C252.991 270.426 252.775 270.223 252.552 270.014C250.631 267.401 250.867 264.384 250.897 261.293C250.898 260.808 250.899 260.323 250.899 259.838C250.902 258.57 250.91 257.302 250.919 256.034C250.927 254.737 250.93 253.44 250.933 252.143C250.941 249.604 250.954 247.065 250.972 244.527C249.042 244.355 247.139 244.257 245.201 244.26C244.964 244.26 244.726 244.26 244.481 244.26C243.735 244.261 242.988 244.263 242.242 244.265C241.73 244.266 241.219 244.267 240.707 244.267C239.465 244.268 238.223 244.271 236.98 244.275C236.744 246.798 236.736 249.286 236.77 251.82C236.777 252.684 236.784 253.549 236.791 254.413C236.802 255.764 236.816 257.116 236.835 258.467C236.853 259.779 236.861 261.091 236.87 262.403C236.877 262.805 236.884 263.207 236.892 263.621C236.901 266.301 236.617 268.551 234.666 270.565C233.111 272.001 231.142 272.663 229.04 272.765C226.748 272.641 225.222 271.981 223.55 270.375C223.287 270.131 223.024 269.887 222.753 269.635C220.915 267.088 221.255 263.733 221.277 260.735C221.278 260.271 221.279 259.808 221.279 259.344C221.28 258.134 221.286 256.925 221.293 255.715C221.299 254.477 221.301 253.238 221.303 252C221.308 249.577 221.317 247.155 221.33 244.733C220.22 244.337 219.365 244.207 218.183 244.234C217.855 244.238 217.526 244.242 217.188 244.247C216.503 244.261 215.819 244.275 215.134 244.291C212.794 244.32 211.056 244.231 209.16 242.719C206.895 240.213 207.2 236.907 207.238 233.75C207.239 233.299 207.238 232.849 207.238 232.398C207.265 227.271 207.265 227.271 209.14 225.087C212 222.362 217.744 223.351 221.432 223.356C222.014 223.356 222.595 223.356 223.177 223.355C224.746 223.355 226.316 223.356 227.886 223.357C228.867 223.358 229.849 223.359 230.83 223.359C234.257 223.361 237.683 223.363 241.109 223.367C244.301 223.371 247.492 223.371 250.684 223.371C253.428 223.371 256.173 223.372 258.917 223.375C260.555 223.377 262.192 223.378 263.829 223.377C265.367 223.377 266.905 223.378 268.443 223.382C269.007 223.383 269.571 223.383 270.135 223.382C270.905 223.381 271.675 223.383 272.446 223.385C273.092 223.386 273.092 223.386 273.751 223.386C275.387 223.472 276.726 223.717 278.029 224.739C278.218 224.881 278.408 225.023 278.603 225.169C280.667 227.542 280.539 230.193 280.506 233.159C280.499 233.9 280.503 234.641 280.508 235.382C280.507 235.859 280.505 236.337 280.503 236.814C280.501 237.242 280.499 237.67 280.496 238.111C280.315 239.895 279.825 241.215 278.685 242.629C276.282 244.566 273.955 244.434 270.98 244.37C270.584 244.365 270.187 244.36 269.779 244.355C268.805 244.343 267.833 244.327 266.86 244.306C266.393 245.477 266.335 246.46 266.35 247.717C266.354 248.116 266.357 248.515 266.361 248.926C266.367 249.356 266.373 249.786 266.379 250.228C266.382 250.677 266.386 251.125 266.389 251.574C266.402 253.473 266.421 255.373 266.445 257.272C266.459 258.437 266.468 259.601 266.474 260.765C266.479 261.419 266.49 262.073 266.5 262.727C266.521 266.845 265.727 270.032 261.927 272.206Z" fill="#fac310"/>
<path d="M272.062 218.616C271.051 219.065 270.202 219.027 269.095 219.028C268.867 219.029 268.64 219.031 268.406 219.032C267.645 219.035 266.883 219.033 266.122 219.031C265.576 219.032 265.03 219.034 264.485 219.036C263.002 219.039 261.52 219.038 260.037 219.036C258.801 219.035 257.564 219.036 256.328 219.036C253.412 219.038 250.496 219.036 247.581 219.031C244.569 219.026 241.558 219.028 238.546 219.034C235.963 219.039 233.38 219.039 230.796 219.035C229.252 219.033 227.708 219.033 226.164 219.037C224.714 219.041 223.263 219.039 221.812 219.032C221.278 219.031 220.745 219.032 220.211 219.034C219.485 219.038 218.759 219.034 218.033 219.028C217.626 219.028 217.219 219.028 216.8 219.028C215.849 218.879 215.849 218.879 215.362 218.32C215.096 217.582 215.042 216.992 215.035 216.208C215.031 215.912 215.027 215.616 215.023 215.312C215.022 214.833 215.022 214.833 215.021 214.345C215.019 214.012 215.017 213.679 215.015 213.336C215.012 212.629 215.01 211.922 215.011 211.216C215.01 210.152 214.999 209.089 214.987 208.026C214.944 199.774 216.678 192.575 222.484 186.428C227.573 181.621 233.685 179.192 240.686 179.079C241.23 179.07 241.773 179.057 242.316 179.042C250.599 178.819 257.691 180.012 264.201 185.606C269.742 190.888 272.325 197.3 272.584 204.862C272.624 206.532 272.635 208.201 272.634 209.871C272.635 210.918 272.646 211.965 272.657 213.013C272.659 213.679 272.66 214.346 272.661 215.013C272.668 215.482 272.668 215.482 272.674 215.96C272.672 216.248 272.67 216.536 272.668 216.832C272.669 217.085 272.67 217.338 272.67 217.599C272.524 218.227 272.524 218.227 272.062 218.616Z" fill="#fac310"/>
<path d="M254.456 174.575C253.192 175.13 252.339 174.992 251.001 174.725C248.51 174.291 246.099 174.221 243.577 174.237C243.142 174.238 242.707 174.239 242.26 174.24C239.315 174.265 236.472 174.423 233.588 175.027C233.176 173.959 233.053 173.075 233.056 171.934C233.056 171.621 233.056 171.307 233.056 170.985C233.059 170.661 233.061 170.336 233.064 170.002C233.064 169.675 233.064 169.349 233.064 169.012C233.073 166.133 233.073 166.133 234.081 164.801C234.943 163.979 235.496 163.762 236.681 163.715C236.996 163.702 237.311 163.689 237.635 163.676C238.018 163.667 238.4 163.659 238.793 163.65C239.024 163.645 239.254 163.639 239.492 163.634C241.133 163.597 242.774 163.579 244.415 163.573C244.997 163.57 245.58 163.564 246.162 163.555C247.013 163.543 247.863 163.539 248.714 163.536C248.972 163.531 249.23 163.526 249.495 163.521C251.202 163.527 252.294 163.844 253.734 164.852C254.748 166.717 254.53 168.848 254.496 170.914C254.493 171.266 254.491 171.619 254.488 171.982C254.48 172.846 254.469 173.71 254.456 174.575Z" fill="#fac310"/>
<path d="M323.473 369.633C324.578 369.636 325.471 370.533 325.468 371.638L325.465 372.97C325.462 374.075 324.565 374.968 323.46 374.965L306.131 374.923C305.026 374.92 304.133 374.022 304.135 372.918L304.139 371.585C304.142 370.481 305.039 369.588 306.144 369.59L323.473 369.633Z" fill="#fac310"/>
<path d="M290.41 389.057C290.419 387.952 291.322 387.064 292.426 387.073L293.759 387.084C294.863 387.093 295.751 387.996 295.742 389.101L295.6 406.43C295.591 407.534 294.688 408.422 293.584 408.413L292.251 408.402C291.147 408.393 290.259 407.491 290.268 406.386L290.41 389.057Z" fill="#fac310"/>
<rect x="303.916" y="381.167" width="21.3297" height="5.33243" rx="2" transform="rotate(36.91 303.916 381.167)" fill="#fac310"/>
<path d="M189.852 215.88C189.447 214.853 188.285 214.349 187.258 214.754L186.018 215.243C184.991 215.649 184.487 216.81 184.892 217.838L191.254 233.958C191.66 234.985 192.821 235.489 193.849 235.084L195.088 234.594C196.116 234.189 196.62 233.027 196.214 232L189.852 215.88Z" fill="#fac310"/>
<path d="M183.829 253.751C184.855 253.34 185.352 252.175 184.941 251.15L184.444 249.914C184.033 248.888 182.869 248.391 181.843 248.802L165.76 255.257C164.735 255.668 164.238 256.833 164.649 257.858L165.146 259.094C165.557 260.119 166.721 260.617 167.747 260.206L183.829 253.751Z" fill="#fac310"/>
<rect width="21.3297" height="5.33243" rx="2" transform="matrix(-0.850874 -0.525371 -0.525371 0.850874 186.248 238.297)" fill="#fac310"/>
</svg>
