<svg width="680" height="680" viewBox="0 0 680 680" fill="none" xmlns="http://www.w3.org/2000/svg">
<path d="M139.458 345.105C162.38 344.479 184.356 351.063 206.28 357.006C209.085 357.759 211.89 358.512 214.695 359.264C220.538 360.832 226.379 362.406 232.218 363.986C239.643 365.994 247.072 367.99 254.502 369.982C260.284 371.533 266.064 373.088 271.844 374.645C274.58 375.382 277.317 376.118 280.054 376.853C292.58 380.22 305.098 383.612 317.51 387.382C319.137 387.876 320.765 388.369 322.441 388.878C333.484 392.985 341.589 401.14 346.641 411.719C350.193 421.9 352.188 432.328 354.117 442.914C354.594 445.474 355.071 448.033 355.549 450.592C356.376 455.037 357.194 459.484 358.013 463.931C358.996 469.269 359.981 474.606 360.977 479.942C361.594 483.252 362.204 486.563 362.808 489.875C363.088 491.374 363.367 492.873 363.655 494.417C364.017 496.387 364.017 496.387 364.387 498.398C365.231 502.019 366.418 505.263 367.891 508.672C371.47 509.79 373.53 510.375 377.188 510C381.287 507.473 384.469 504.143 387.813 500.703C388.706 499.825 389.6 498.946 390.521 498.042C393.186 495.412 395.815 492.75 398.438 490.078C408.052 480.357 408.052 480.357 412.798 476.382C417.062 472.711 421.046 468.846 425 464.844C429.676 460.11 434.472 455.676 439.526 451.355C442.783 448.444 445.837 445.372 448.906 442.266C453.58 437.535 458.37 433.099 463.427 428.787C466.728 425.83 469.798 422.689 472.896 419.521C480.899 411.432 487.78 404.98 499.624 404.663C506.838 404.758 512.223 405.908 517.969 410.391C524.445 417.497 526.448 423.923 526.296 433.472C524.846 447.565 512.31 456.272 502.296 464.87C498.758 468.056 495.413 471.416 492.07 474.805C487.17 479.772 482.143 484.477 476.833 489.004C472.391 492.967 468.279 497.258 464.097 501.492C460.524 505.019 456.788 508.275 452.974 511.536C449.717 514.446 446.663 517.518 443.594 520.625C438.917 525.358 434.122 529.793 429.067 534.114C425.811 537.025 422.757 540.096 419.688 543.203C415.841 547.096 411.981 550.858 407.817 554.409C403.366 558.213 399.227 562.28 395.117 566.445C390.183 571.44 385.159 576.241 379.813 580.795C375.792 584.244 371.902 587.838 367.994 591.415C361.335 596.86 355.553 597.048 347.092 596.925C340.31 596.012 335.516 593.161 330.703 588.359C327.138 583.228 325.818 578.705 324.68 572.588C324.515 571.729 324.35 570.869 324.18 569.984C323.658 567.257 323.154 564.527 322.651 561.797C322.142 559.067 321.629 556.337 321.108 553.609C320.637 551.135 320.178 548.658 319.72 546.181C318.833 542.243 317.941 538.823 316.094 535.234C312.229 533.797 312.229 533.797 308.125 533.906C303.527 536.971 303.396 537.817 302.028 542.937C301.664 544.272 301.299 545.607 300.923 546.982C300.542 548.44 300.16 549.898 299.767 551.4C299.359 552.912 298.951 554.423 298.53 555.981C297.205 560.904 295.9 565.833 294.595 570.762C293.693 574.118 292.79 577.473 291.885 580.829C288.103 594.883 284.373 608.95 280.732 623.041C280.25 624.894 279.768 626.748 279.286 628.601C278.452 631.827 277.631 635.056 276.828 638.29C274.945 645.602 273.342 651.704 268.281 657.422C263.145 660.028 258.89 660.411 253.172 660.415C250.608 660.427 250.608 660.427 247.993 660.438C246.108 660.433 244.223 660.427 242.339 660.422C240.347 660.425 238.354 660.43 236.362 660.436C230.959 660.448 225.556 660.443 220.153 660.435C214.497 660.428 208.84 660.434 203.184 660.439C193.685 660.443 184.186 660.437 174.687 660.424C163.708 660.41 152.728 660.415 141.749 660.429C132.32 660.441 122.89 660.443 113.461 660.436C107.83 660.432 102.2 660.431 96.5691 660.44C91.2754 660.448 85.9819 660.442 80.6883 660.427C78.7464 660.424 76.8046 660.425 74.8627 660.43C72.2104 660.438 69.5581 660.427 66.9058 660.415C65.4221 660.414 63.9383 660.413 62.4096 660.412C56.611 659.924 53.0061 658.533 48.7256 654.6C45.0203 648.287 46.1121 642.024 47.4928 635.097C47.956 633.33 48.4333 631.566 48.9228 629.806C49.1819 628.833 49.4409 627.86 49.7079 626.857C50.5577 623.678 51.4261 620.503 52.295 617.329C52.8917 615.111 53.4872 612.893 54.0816 610.675C55.6419 604.864 57.2182 599.057 58.7978 593.251C60.4098 587.316 62.0066 581.376 63.6048 575.436C66.7374 563.802 69.8868 552.173 73.0469 540.547C78.9143 538.867 83.0491 539.687 88.9199 541.157C89.8238 541.379 90.7278 541.602 91.6591 541.831C94.6464 542.569 97.6284 543.327 100.611 544.085C102.711 544.608 104.812 545.13 106.912 545.651C112.458 547.029 117.999 548.424 123.539 549.822C129.079 551.218 134.623 552.597 140.167 553.978C171.968 561.91 171.968 561.91 185.316 565.359C186.545 565.674 187.773 565.989 189.039 566.314C191.162 566.859 193.282 567.411 195.401 567.973C207.72 571.13 220.252 571.819 232.007 566.29C242.451 560.044 249.826 552.205 253.672 540.547C256.269 528.371 254.857 518.073 248.94 507.178C242.201 496.803 234.454 491.658 222.658 488.146C221.727 487.863 220.796 487.579 219.836 487.287C210.167 484.387 200.397 481.935 190.586 479.562C188.706 479.102 186.826 478.641 184.947 478.18C180.071 476.985 175.192 475.799 170.314 474.614C165.35 473.407 160.389 472.192 155.427 470.978C148.165 469.202 140.902 467.431 133.637 465.662C127.159 464.084 120.685 462.488 114.219 460.859C116.612 451.271 122.722 443.454 128.133 435.342C132.565 428.451 135.3 423.967 134.141 415.703C129.816 414.451 129.816 414.451 124.844 414.375C119.585 418.789 116.207 423.799 112.709 429.659C112.224 430.465 111.738 431.272 111.238 432.103C109.705 434.655 108.185 437.215 106.665 439.775C105.128 442.343 103.589 444.91 102.049 447.476C100.66 449.796 99.2767 452.119 97.8938 454.442C96.3134 457.062 94.6659 459.642 92.9688 462.187C92.3047 465.508 92.3047 465.508 92.9688 468.828C96.951 472.552 100.799 473.764 106.034 475.047C107.602 475.438 109.171 475.829 110.787 476.231C112.489 476.642 114.192 477.053 115.946 477.476C117.746 477.921 119.546 478.366 121.345 478.812C126.11 479.992 130.879 481.156 135.649 482.317C140.337 483.461 145.022 484.615 149.707 485.769C150.626 485.996 151.545 486.222 152.492 486.455C157.143 487.6 161.793 488.749 166.442 489.904C168.309 490.367 170.175 490.831 172.042 491.294C172.964 491.523 173.886 491.752 174.836 491.988C180.549 493.402 186.27 494.773 192.001 496.114C195.773 497.003 199.539 497.917 203.304 498.836C205.916 499.464 208.536 500.059 211.156 500.654C221.037 503.089 228.508 505.938 235.078 513.984C238.672 520.432 239.971 526.512 239.063 533.906C236.264 542.754 232.745 547.76 224.742 552.605C213.589 557.236 199.207 553.122 188.03 550.255C186.481 549.875 184.933 549.495 183.337 549.103C179.143 548.069 174.955 547.018 170.767 545.957C166.355 544.844 161.936 543.752 157.519 542.657C150.109 540.817 142.702 538.962 135.299 537.097C126.773 534.949 118.242 532.821 109.707 530.706C100.568 528.44 91.4323 526.159 82.2977 523.875C79.6877 523.223 77.077 522.574 74.4662 521.925C69.5797 520.708 64.6965 519.478 59.814 518.245C57.6723 517.715 57.6723 517.715 55.4873 517.174C29.3385 510.516 29.3385 510.516 22.5782 499.375C19.4566 492.046 19.619 485.774 21.25 478.125C22.7605 474.438 24.7516 471.183 26.8946 467.832C27.4804 466.877 28.0663 465.922 28.6698 464.938C29.9393 462.876 31.2188 460.819 32.5073 458.769C34.5736 455.479 36.6123 452.174 38.6454 448.865C42.2732 442.968 45.9263 437.087 49.5862 431.211C52.4495 426.607 55.2991 421.995 58.1483 417.383C61.003 412.764 63.864 408.148 66.726 403.534C68.3765 400.872 70.0258 398.209 71.674 395.546C74.3685 391.194 77.0689 386.847 79.7706 382.5C80.6092 381.143 81.4479 379.787 82.312 378.389C83.1049 377.116 83.8978 375.843 84.7147 374.531C85.4116 373.408 86.1085 372.285 86.8265 371.128C96.0246 357.329 109.017 350.715 124.844 346.641C129.823 345.677 134.412 345.367 139.458 345.105Z" fill="#FAC310"/>
<path d="M312.945 204.853C333.187 219.86 345.478 237.834 349.297 262.969C351.214 284.635 345.429 304.422 332.363 321.738C317.672 339.1 298.342 348.925 275.757 351.045C254.501 351.793 234.809 345.502 218.726 331.45C216.627 329.454 214.549 327.436 212.5 325.391C211.352 324.266 211.352 324.266 210.181 323.118C194.91 306.856 191.537 285.811 192.116 264.442C193.196 243.385 203.909 225.284 219.141 211.172C245.93 190.834 283.87 185.852 312.945 204.853ZM263.659 295.752C259.362 301.972 258.47 307.309 258.984 314.766C260.776 319.343 261.905 320.913 266.372 322.983C272.32 322.659 275.592 320.281 280.426 316.944C290.85 310.955 300.767 310.207 312.553 310.198C319.12 310.09 319.12 310.09 324.784 306.989C327.473 303.03 327.472 300.879 326.719 296.172C322.594 288.24 317.314 284.353 309.038 281.23C292.144 277.794 275.306 282.506 263.659 295.752Z" fill="#FAC310"/>
<path d="M572.505 484.267C574.87 484.252 574.87 484.252 577.283 484.236C582.049 484.805 584.55 485.889 588.359 488.75C590.103 491.655 590.103 491.655 591.016 494.062C586.035 499.209 586.035 499.209 583.047 500.703C583.047 505.086 583.047 509.469 583.047 513.984C584.703 514.513 584.703 514.513 586.393 515.053C587.836 515.522 589.28 515.991 590.767 516.474C592.2 516.937 593.633 517.399 595.109 517.875C598.984 519.297 598.984 519.297 602.969 521.953C606.499 521.725 608.321 520.598 611.27 518.633C614.342 514.243 613.967 511.142 613.651 505.917C613.632 505.073 613.613 504.229 613.594 503.359C614.922 502.031 614.922 502.031 618.989 501.45C627.505 502.396 632.534 507.394 638.081 513.652C641.702 518.866 641.716 522.238 641.484 528.594C641.046 529.032 640.608 529.47 640.156 529.922C638.54 529.757 636.924 529.593 635.259 529.424C631.453 529.328 630.02 529.514 627.057 531.987C625.088 534.326 623.27 536.683 621.563 539.219C622.027 540.181 622.49 541.143 622.969 542.134C628.971 554.888 628.971 554.888 629.531 561.797C634.352 561.797 639.174 561.797 644.141 561.797C645.017 559.605 645.894 557.414 646.797 555.156C650.283 554.077 650.283 554.077 653.438 553.828C658.744 559.819 659.809 563.612 660.41 571.426C660.002 577.544 658.264 582.663 656.094 588.359C652.358 589.272 652.358 589.272 648.125 589.687C645.635 588.027 645.635 588.027 644.141 585.703C644.141 584.388 644.141 583.073 644.141 581.719C639.32 581.719 634.499 581.719 629.531 581.719C629.038 584.307 629.038 584.307 628.535 586.948C627.075 593.612 624.54 599.511 621.563 605.625C626.004 611.378 626.004 611.378 632.38 614.076C634.976 614.015 637.568 613.813 640.156 613.594C641.484 614.922 641.484 614.922 641.899 619.155C641.238 627.221 637.233 631.435 631.357 636.587C625.726 641.271 622.373 641.755 614.922 641.484C614.484 641.046 614.045 640.608 613.594 640.156C613.672 638.273 613.789 636.391 613.926 634.512C614.027 629.224 613.834 628.497 610.274 624.136C609.178 623.286 608.082 622.437 606.953 621.562C602.596 622.944 598.443 624.456 594.253 626.294C590.419 627.897 587.129 628.913 583.047 629.531C582.668 634.018 582.439 638.341 583.047 642.812C586.128 645.504 586.128 645.504 589.688 646.797C591.016 650.781 591.016 650.781 589.688 654.766C583.858 658.461 579.262 659.293 572.422 659.248C570.861 659.258 569.299 659.268 567.69 659.279C562.67 658.697 559.435 657.423 555.156 654.766C553.745 651.445 553.745 651.445 553.828 648.125C555.488 645.718 555.488 645.718 557.813 644.141C559.127 644.141 560.442 644.141 561.797 644.141C561.359 639.319 560.92 634.498 560.469 629.531C549.229 625.407 549.229 625.407 537.891 621.562C534.921 624.472 532.186 627.362 529.922 630.859C530.103 635.166 530.103 635.166 531.25 638.828C528.594 641.484 528.594 641.484 525.107 642.065C517.078 641.024 511.046 636.696 506.099 630.361C503.148 625.82 502.245 621.692 502.031 616.25C502.689 614.935 502.689 614.935 503.359 613.594C504.515 613.755 504.515 613.755 505.694 613.92C512.256 614.508 512.256 614.508 517.881 611.524C519.838 609.19 521.621 606.849 523.281 604.297C522.817 603.446 522.353 602.595 521.875 601.718C518.306 594.934 515.813 589.391 515.313 581.719C510.491 581.719 505.67 581.719 500.703 581.719C499.827 583.91 498.95 586.101 498.047 588.359C496.719 589.687 496.719 589.687 493.565 590.102C490.078 589.687 490.078 589.687 487.754 587.363C483.566 579.826 483.276 569.69 485.611 561.48C487.96 555.946 487.96 555.946 490.078 553.828C493.232 553.413 493.232 553.413 496.719 553.828C499.343 556.543 500.703 557.969 500.703 561.797C505.524 561.797 510.345 561.797 515.313 561.797C515.395 560.564 515.477 559.331 515.562 558.061C516.548 550.798 520.089 544.405 523.281 537.891C518.746 531.982 518.746 531.982 512.122 529.393C509.165 529.421 506.295 529.57 503.359 529.922C502.155 525.323 501.812 522.598 503.359 518.052C507.753 511.323 513.06 505.147 520.625 502.031C524.775 501.699 524.775 501.699 528.594 502.031C529.47 502.908 530.347 503.784 531.25 504.687C531.127 507.194 531.127 507.194 531.001 509.751C530.829 514.731 531.105 515.138 534.57 519.297C535.666 520.173 536.762 521.05 537.891 521.953C542.274 520.563 546.401 519.05 550.591 517.139C554.928 515.404 557.259 515.142 561.797 515.312C561.916 505.322 561.916 505.322 557.065 497.134C555.997 496.558 554.929 495.983 553.828 495.391C553.994 492.319 553.994 492.319 555.156 488.75C561.025 485.057 565.63 484.223 572.505 484.267ZM575.078 552.5C573.689 555.705 573.625 557.328 574.497 560.718C576.343 563.504 576.343 563.504 580.308 564.37C584.278 564.812 584.278 564.812 586.865 562.959C588.864 559.628 588.933 557.651 588.359 553.828C586.837 551.309 586.837 551.309 584.375 549.844C579.001 549.352 579.001 549.352 575.078 552.5ZM547.52 566.03C545.525 568.417 545.525 568.417 545.942 571.841C546.918 575.197 546.918 575.197 549.595 576.987C552.552 578.049 552.552 578.049 555.488 576.572C556.255 576.079 557.022 575.586 557.813 575.078C558.145 571.205 558.145 571.205 557.813 567.109C553.695 564.365 551.797 563.128 547.52 566.03ZM571.924 582.549C569.502 585.635 569.502 585.635 569.019 589.687C569.448 593.881 569.448 593.881 572.671 596.909C576.202 599.283 576.202 599.283 579.893 598.901C583.318 597.549 584.896 596.661 587.031 593.672C588.476 590.542 588.476 590.542 588.359 587.031C586.462 583.138 586.462 583.138 583.047 580.391C578.146 579.472 576.048 579.727 571.924 582.549Z" fill="#FAC310"/>
<path d="M587.197 22.8271C589.687 25.2343 589.687 25.2343 590.352 29.3017C590.132 30.5891 589.913 31.8766 589.687 33.2031C585.703 35.8593 585.703 35.8593 581.719 35.8593C581.719 40.6804 581.719 45.5015 581.719 50.4687C583.472 50.7974 585.225 51.1261 587.031 51.4648C592.624 52.6625 597.013 54.6527 601.874 57.6281C604.348 58.7275 604.348 58.7275 607.01 57.5036C609.674 55.7384 611.663 54.3514 613.594 51.7968C614.025 48.8069 614.025 48.8069 613.76 45.6542C613.666 43.7189 613.601 41.7813 613.594 39.8437C614.922 38.5156 614.922 38.5156 619.155 38.1005C627.221 38.7617 631.435 42.7666 636.587 48.6425C641.272 54.274 641.755 57.6267 641.484 65.0781C641.046 65.5163 640.608 65.9546 640.156 66.4062C638.273 66.3284 636.391 66.2111 634.512 66.0742C629.224 65.973 628.497 66.1664 624.136 69.7265C623.287 70.8222 622.437 71.9179 621.562 73.0468C621.943 73.9884 622.323 74.9301 622.714 75.9002C624.199 79.6385 625.639 83.388 627.041 87.1581C627.51 88.4079 627.979 89.6577 628.463 90.9454C629.531 94.2968 629.531 94.2968 629.531 98.2812C634.352 98.2812 639.173 98.2812 644.141 98.2812C644.579 96.5281 645.017 94.7749 645.469 92.9687C646.126 91.6538 646.126 91.6538 646.797 90.3124C650.532 89.8974 650.532 89.8974 654.766 90.3124C660.23 96.907 660.64 104.609 660.078 112.891C658.638 118.051 657.261 122.348 653.437 126.172C650.117 126.089 650.117 126.089 646.797 124.844C645.92 122.652 645.044 120.461 644.141 118.203C639.32 118.203 634.498 118.203 629.531 118.203C629.038 120.874 629.038 120.874 628.535 123.599C627.582 128.055 626.35 131.392 623.887 135.22C621.167 139.097 621.167 139.097 622.144 142.358C624.891 145.545 627.25 147.863 630.859 150.078C635.042 149.769 635.042 149.769 638.828 148.75C641.484 150.078 641.484 150.078 642.563 152.236C643.078 158.76 639.452 163.804 635.84 168.921C630.936 173.936 626.324 177.511 619.155 178.467C616.25 177.969 616.25 177.969 613.594 175.312C613.717 172.806 613.717 172.806 613.843 170.249C613.964 165.49 613.661 164.782 610.688 160.62C607.299 157.785 607.299 157.785 603.965 157.964C599.666 159.625 595.52 161.529 591.389 163.572C588.359 164.687 588.359 164.687 581.719 164.687C581.719 169.509 581.719 174.33 581.719 179.297C583.91 180.173 586.102 181.05 588.359 181.953C590.103 184.775 590.103 184.775 591.016 187.266C583.694 194.983 583.694 194.983 576.842 195.504C562.106 195.729 562.106 195.729 555.156 191.25C553.662 187.93 553.662 187.93 553.828 184.609C555.838 181.929 557.48 180.791 560.469 179.297C561.091 175.862 561.091 175.862 561.299 171.909C561.398 170.565 561.497 169.221 561.6 167.837C561.665 166.797 561.73 165.758 561.797 164.687C559.948 164.564 559.948 164.564 558.062 164.438C550.799 163.452 544.405 159.911 537.891 156.719C534.921 159.628 532.189 162.521 529.922 166.016C530.112 170.265 530.112 170.265 531.25 173.984C530.373 175.299 529.497 176.614 528.594 177.969C519.426 177.969 515.119 175.163 508.568 168.838C504.404 164.234 502.188 160.445 501.782 154.228C501.864 153.297 501.947 152.366 502.031 151.406C507.054 148.967 509.928 148.54 515.312 150.078C517.942 147.01 520.572 143.942 523.281 140.781C522.817 139.93 522.353 139.079 521.875 138.203C518.306 131.419 515.813 125.876 515.312 118.203C512.932 118.283 510.552 118.401 508.174 118.535C506.849 118.597 505.524 118.658 504.158 118.722C502.448 119.122 502.448 119.122 500.703 119.531C499.053 122.105 499.053 122.105 498.047 124.844C494.81 126.089 494.81 126.089 491.406 126.172C487.451 123.535 486.277 119.929 484.766 115.547C483.758 106.671 484.483 99.4923 488.75 91.6406C490.078 90.3124 490.078 90.3124 493.232 89.8974C496.719 90.3124 496.719 90.3124 499.126 92.8027C500.703 95.6249 500.703 95.6249 500.703 98.2812C505.524 98.2812 510.345 98.2812 515.312 98.2812C515.395 97.0485 515.477 95.8159 515.562 94.5458C516.548 87.2829 520.089 80.8894 523.281 74.3749C518.867 68.6273 518.867 68.6273 512.511 65.9704C509.901 66.0657 507.294 66.2324 504.687 66.4062C503.811 65.5296 502.934 64.6531 502.031 63.7499C502.031 55.1738 505.6 50.012 511.328 43.8281C517.692 38.2941 521.837 37.958 529.922 38.5156C531.44 44.587 531.44 44.587 530.378 47.7709C530.228 48.6612 530.077 49.5515 529.922 50.4687C531.488 52.8385 531.488 52.8385 533.823 54.7851C534.575 55.4768 535.326 56.1684 536.101 56.881C536.691 57.3947 537.282 57.9083 537.891 58.4374C538.831 58.0574 539.77 57.6773 540.739 57.2857C544.504 55.7921 548.284 54.3589 552.085 52.9589C553.35 52.4898 554.615 52.0207 555.919 51.5374C559.141 50.4687 559.141 50.4687 561.797 50.4687C561.797 45.6476 561.797 40.8265 561.797 35.8593C558.51 34.5445 558.51 34.5445 555.156 33.2031C553.828 29.9658 553.828 29.9658 553.828 26.5624C557.345 22.0968 561.002 21.3462 566.388 20.3005C573.672 19.4837 580.354 20.2266 587.197 22.8271ZM575.078 88.5693C573.411 91.6356 573.411 91.6356 574.414 95.1269C576.213 98.4749 576.213 98.4749 579.561 100.273C583.123 101.351 583.123 101.351 586.118 99.1113C586.858 98.3991 587.597 97.6869 588.359 96.9531C588.114 91.1866 588.114 91.1866 585.703 86.3281C579.897 85.6663 579.897 85.6663 575.078 88.5693ZM545.859 103.594C545.417 106.914 545.417 106.914 545.859 110.234C548.286 113.222 548.286 113.222 551.836 113.223C555.386 113.222 555.386 113.222 557.812 110.234C558.255 106.914 558.255 106.914 557.812 103.594C555.386 100.606 555.386 100.606 551.836 100.605C548.286 100.606 548.286 100.606 545.859 103.594ZM572.671 117.539C569.343 120.73 569.343 120.73 569.102 125.591C569.466 129.966 569.466 129.966 571.177 132.729C575.348 135.017 578.396 134.793 583.047 134.141C586.552 131.419 586.552 131.419 588.359 127.5C588.267 123.632 587.609 121.668 585.371 118.535C580.667 115.175 577.806 114.8 572.671 117.539Z" fill="#FAC310"/>
<path d="M372.954 310.465C374.007 310.452 375.059 310.439 376.144 310.425C433.011 309.87 494.455 318.528 537.45 359.491C538.472 360.51 539.494 361.529 540.547 362.578C541.655 363.676 542.762 364.773 543.904 365.904C568.387 390.619 568.387 390.619 569.766 403.75C567.907 408.451 566.464 410.035 561.963 412.383C557.813 413.047 557.813 413.047 554.617 411.631C550.424 408.505 547.867 404.818 545.029 400.513C517.43 360.508 475.613 342.448 429.036 333.645C411.418 330.923 392.92 330.398 375.119 330.813C372.82 330.867 372.82 330.867 370.474 330.921C369.088 330.972 367.701 331.023 366.273 331.075C362.002 330.645 360.292 329.714 357.266 326.719C355.681 321.859 355.504 319.68 357.681 315.015C361.839 309.625 366.636 310.528 372.954 310.465Z" fill="#FAC310"/>
<path d="M569.454 262.958C572.422 265.625 572.422 265.625 573.833 270.19C573.75 274.922 573.75 274.922 571.758 278.823C567.269 282.527 564.861 282.104 559.141 281.562C555.203 279.565 555.203 279.565 551.255 276.831C516.966 254.294 475.874 249.492 436.139 257.267C423.466 260.248 403.894 265.481 394.453 274.922C384.84 275.542 384.84 275.542 381.255 273.345C379.395 270.171 378.692 267.993 378.516 264.297C382.402 253.932 395.368 249.554 404.732 245.168C456.966 221.988 523.284 229.7 569.454 262.958Z" fill="#FAC310"/>
<path d="M618.906 321.406C624.51 321.829 627.895 325.615 631.772 329.292C632.471 329.947 633.17 330.601 633.889 331.276C659.436 355.5 659.436 355.5 660.338 372.555C659.741 380.159 656.611 386.603 650.947 391.714C643.651 396.53 636.915 398.125 628.203 397.109C620.736 395.565 615.822 392.465 611.192 386.396C605.462 377.097 606.245 366.293 608.281 355.938C615.868 324.445 615.868 324.445 618.906 321.406Z" fill="#FAC310"/>
<path d="M468.828 131.484C471.982 133.559 471.982 133.559 474.141 136.797C474.971 141.362 474.971 141.362 474.141 146.094C470.683 149.839 467.072 152.158 462.795 154.898C438.692 170.478 419.922 190.102 403.327 213.401C402.576 214.449 401.826 215.498 401.052 216.578C400.387 217.52 399.722 218.461 399.037 219.432C396.105 223.029 393.819 224.364 389.224 224.951C385.156 224.453 385.156 224.453 382.002 222.378C379.007 217.885 379.317 215.185 379.844 209.844C381.641 206.562 383.307 203.955 385.571 201.045C386.474 199.841 386.474 199.841 387.394 198.614C389.275 196.134 391.192 193.688 393.125 191.25C393.693 190.527 394.261 189.803 394.846 189.058C444.509 126.394 444.509 126.394 468.828 131.484Z" fill="#FAC310"/>
<path d="M154.063 91.6405C157.383 94.3798 157.383 94.3798 159.375 98.2811C159.313 104.225 158.896 106.74 154.607 110.971C153.142 112.023 151.659 113.049 150.161 114.053C148.573 115.2 146.987 116.352 145.404 117.508C144.223 118.356 144.223 118.356 143.019 119.221C124.974 132.429 113.082 150.223 102.26 169.44C99.6094 173.984 99.6094 173.984 96.9532 176.641C87.7836 177.368 87.7836 177.368 83.6719 175.312C81.4145 170.798 81.3829 166.859 82.3438 162.031C89.8434 143.765 103.33 128.269 116.875 114.219C117.76 113.25 118.645 112.281 119.557 111.282C128.438 101.822 140.408 90.0505 154.063 91.6405Z" fill="#FAC310"/>
<path d="M200.547 112.891C203.203 114.219 203.203 114.219 204.531 116.875C205.471 124.278 205.471 124.278 204.531 127.5C200.307 131.483 195.676 134.146 190.586 136.88C169.46 149.104 154.726 165.937 144.195 187.821C141.975 191.472 140.825 192.645 136.797 193.906C132.724 193.657 129.849 193.191 126.338 191.084C123.954 187.11 124.504 183.863 124.844 179.297C126.23 175.837 127.596 172.877 129.409 169.668C130.126 168.369 130.126 168.369 130.857 167.044C135.515 158.86 141.062 151.71 147.422 144.766C148.446 143.634 149.469 142.502 150.524 141.336C158.832 132.585 167.838 125.997 177.969 119.531C179.085 118.798 180.201 118.066 181.351 117.311C188.034 113.209 192.702 111.809 200.547 112.891Z" fill="#FAC310"/>
</svg>
