<svg width="680" height="680" viewBox="0 0 680 680" fill="none" xmlns="http://www.w3.org/2000/svg">
<path d="M217.945 22.7109C135.203 32.0077 61.8906 83.6718 25.1016 158.711C-10.8906 232.156 -7.83595 316.758 33.8672 399.766C45.0234 421.812 62.9531 449.437 77.9609 467.102L83.8047 474.141L68.3984 556.75C51.1328 648.656 51.3984 645.336 60.4297 653.305C62.9531 655.43 66.9375 657.688 69.3281 658.086C71.7187 658.484 118.336 658.75 172.922 658.484C270.672 658.086 272.133 658.086 275.719 655.297C282.492 650.25 284.086 646.531 288.203 626.344C290.328 615.453 292.187 606.422 292.187 606.289C292.187 606.023 309.719 605.625 331.102 605.227C365.234 604.695 371.211 604.297 380.508 601.906C415.305 592.609 438.281 570.031 450.234 533.508C455.016 518.898 452.891 508.672 443.727 503.094C438.945 500.039 438.414 500.039 377.852 499.375L316.758 498.711L312.375 492.203C303.477 478.789 301.883 462.055 308.125 445.586C312.242 434.961 324.461 422.609 335.484 418.227C343.32 415.039 343.852 415.039 409.062 414.375C469.625 413.711 475.203 413.578 478.523 411.32C483.039 408.398 487.422 401.492 487.422 397.375C487.422 395.781 487.953 394.453 488.617 394.453C489.281 394.453 494.594 389.937 500.437 384.492C516.773 369.219 524.344 351.953 523.016 333.625C522.484 326.32 521.953 324.992 515.844 318.086C494.461 293.383 487.422 277.977 487.422 254.469C487.289 233.75 480.117 199.219 471.352 176.906C439.609 97.0859 370.945 40.7734 286.211 25.1015C269.078 22.0468 234.812 20.7187 217.945 22.7109Z" fill="#FAC310"/>
<path d="M567.375 399.102C555.555 401.758 540.945 408.664 537.625 413.445C533.508 419.156 532.977 429.781 536.43 435.359C542.672 445.055 552.5 447.18 565.648 441.602C576.406 437.086 582.781 436.289 592.875 438.281C600.844 439.742 602.039 439.742 607.219 437.086C614.523 433.5 617.844 428.719 618.508 421.148C619.57 409.063 612.133 401.227 597.258 398.57C586.5 396.711 577.867 396.844 567.375 399.102Z" fill="#FAC310"/>
<path d="M608.414 484.5C602.039 487.688 598.719 492.734 598.055 500.305C596.992 512.922 604.164 519.961 620.234 522.086C630.594 523.281 636.969 526.203 645.336 533.109C654.898 541.211 666.586 541.211 674.289 533.109C683.055 523.68 681.594 512.789 669.773 502.031C652.641 486.359 621.961 477.594 608.414 484.5Z" fill="#FAC310"/>
<path d="M543.469 536.562C530.984 544.133 530.719 562.461 543.07 570.43C551.172 575.609 557.68 583.445 561.133 592.211C566.047 604.828 571.492 609.609 581.055 609.609C591.148 609.609 599.117 603.102 600.977 593.406C602.969 583.18 593.406 562.992 580.391 549.844C565.25 534.57 553.695 530.32 543.469 536.562Z" fill="#FAC310"/>
</svg>
