<svg width="680" height="680" viewBox="0 0 680 680" fill="none" xmlns="http://www.w3.org/2000/svg">
<path d="M348.384 23.4911C349.716 23.4976 351.049 23.5042 352.422 23.5109C377.221 23.9005 397.614 33.9951 419.604 44.4091C421.601 45.3514 423.598 46.2935 425.595 47.2356C439.777 53.9353 453.909 60.7369 468.015 67.5955C476.184 71.5561 484.379 75.4463 492.631 79.2308C493.493 79.6272 494.356 80.0236 495.245 80.432C499.386 82.3333 503.532 84.2234 507.686 86.0981C509.151 86.7681 510.617 87.438 512.127 88.1282C513.419 88.7124 514.711 89.2965 516.042 89.8983C519.118 91.545 521.125 92.9012 523.281 95.6249C524.623 107.371 520.242 117.813 513.984 127.5C509.337 133.26 504.45 137.093 498.047 140.781C498.254 142.307 498.461 143.832 498.675 145.404C501.015 163.611 502.497 180 492.614 196.294C491.102 199.956 491.397 202.128 491.958 206.035C492.144 207.392 492.331 208.748 492.523 210.146C492.74 211.604 492.957 213.062 493.181 214.565C493.391 216.071 493.601 217.578 493.817 219.13C494.492 223.95 495.189 228.767 495.889 233.584C496.575 238.392 497.256 243.2 497.932 248.009C498.353 251.002 498.782 253.994 499.218 256.985C501.119 270.312 501.119 270.312 500.703 276.25C499.375 277.578 499.375 277.578 496.176 277.729C494.792 277.722 493.408 277.715 491.982 277.708C490.488 277.703 488.995 277.699 487.456 277.695C485.883 277.684 484.311 277.672 482.69 277.661C481.113 277.655 479.535 277.649 477.91 277.643C473.997 277.627 470.084 277.605 466.172 277.578C466.179 278.456 466.186 279.334 466.193 280.239C466.22 284.194 466.238 288.149 466.255 292.104C466.266 293.487 466.277 294.869 466.289 296.294C466.293 297.608 466.297 298.922 466.302 300.275C466.309 301.493 466.315 302.71 466.323 303.964C466.172 306.797 466.172 306.797 464.844 308.125C462.791 308.038 460.743 307.855 458.701 307.627C457.494 307.495 456.287 307.363 455.044 307.227C452.299 306.888 449.563 306.481 446.831 306.05C438.701 305.015 431.768 304.726 423.952 307.482C422.371 308.032 422.371 308.032 420.758 308.593C419.967 308.877 419.175 309.161 418.359 309.453C419.616 309.986 419.616 309.986 420.899 310.529C424.674 312.132 428.448 313.739 432.222 315.347C433.541 315.906 434.86 316.465 436.219 317.04C438.1 317.843 438.1 317.843 440.019 318.662C441.181 319.156 442.342 319.649 443.539 320.158C446.25 321.406 446.25 321.406 447.578 322.734C448.259 329.368 447.006 332.41 442.93 337.593C441.961 338.848 440.992 340.103 439.993 341.395C438.99 342.688 437.987 343.981 436.953 345.312C435.122 347.91 433.295 350.51 431.475 353.115C424.687 362.408 418.797 367.884 407.091 369.743C394.901 370.715 386.333 365.899 376.034 360.138C370.744 357.253 365.326 354.618 359.922 351.953C357.371 357.429 354.827 362.908 352.285 368.389C351.57 369.924 350.854 371.46 350.117 373.042C348.046 377.511 346.013 381.996 343.984 386.484C343.394 387.723 342.804 388.961 342.195 390.237C338.885 397.587 338.137 401.629 341.079 409.477C344.58 419.098 344.58 419.098 342.656 425C342.218 425.438 341.78 425.876 341.328 426.328C333.105 426.204 325.448 424.16 317.754 421.431C316.086 420.839 316.086 420.839 314.385 420.236C279.032 407.158 224.744 383.845 207.188 347.969C207.402 339.366 210.947 333.966 215.571 327.051C217.016 324.831 218.46 322.61 219.903 320.389C220.65 319.252 221.397 318.114 222.167 316.942C225.932 311.17 229.587 305.328 233.252 299.492C234.569 297.402 235.886 295.313 237.205 293.225C237.758 292.349 238.31 291.474 238.879 290.571C240.242 288.437 241.642 286.326 243.047 284.219C242.54 275.017 239.109 266.501 236.129 257.853C228.97 236.269 226.109 214.473 224.439 191.871C224.123 187.619 223.776 183.37 223.426 179.12C222.32 165.195 221.583 151.319 221.532 137.347C221.525 136.107 221.518 134.867 221.51 133.59C221.653 106.124 235.415 83.2946 253.672 63.7499C254.459 62.8562 255.247 61.9625 256.058 61.0418C278.809 36.3764 315.537 23.2989 348.384 23.4911Z" fill="#FAC310"/>
<path d="M199.219 346.641C199.763 347.824 200.308 349.007 200.869 350.226C204.534 357.109 209.82 362.263 215.156 367.891C216.06 368.88 216.964 369.87 217.896 370.889C248.253 402.972 293.522 420.997 334.688 434.297C334.4 435.021 334.112 435.745 333.816 436.491C329.932 447.01 329.294 455.676 333.167 466.276C335.332 469.911 338.293 472.571 341.328 475.469C343.194 477.312 345.056 479.16 346.916 481.01C348.411 482.496 348.411 482.496 349.938 484.013C350.959 485.029 351.98 486.044 353.032 487.09C354.079 488.126 355.126 489.161 356.205 490.229C357.193 491.213 358.182 492.197 359.201 493.212C360.104 494.108 361.008 495.005 361.939 495.929C363.906 498.047 363.906 498.047 363.906 499.375C362.706 499.601 361.506 499.827 360.269 500.06C358.703 500.382 357.136 500.704 355.522 501.035C353.966 501.343 352.41 501.651 350.807 501.969C346.666 503.054 346.666 503.054 344.13 505.549C342.101 509.849 342.006 513.804 342.075 518.467C342.087 519.451 342.099 520.435 342.112 521.45C343.466 567.045 362.54 611.077 391.797 645.469C378.367 645.823 365.268 644.767 351.953 643.228C350.912 643.109 349.871 642.99 348.799 642.868C252.512 631.815 152.535 602.233 86.3281 527.266C80.9707 520.501 76.2612 513.344 71.7188 506.016C70.5015 504.362 70.5015 504.362 69.2596 502.675C66.5021 496.709 68.5931 491.507 70.5618 485.513C83.5272 453.293 102.382 425.17 127.5 401.094C128.596 399.998 129.691 398.902 130.82 397.773C131.916 396.678 133.012 395.582 134.141 394.453C134.837 393.71 135.534 392.967 136.252 392.202C144.526 383.561 153.841 376.415 163.359 369.219C164.209 368.575 165.059 367.931 165.935 367.268C193.289 346.641 193.289 346.641 199.219 346.641Z" fill="#FAC310"/>
<path d="M357.266 434.297C361.39 436.455 361.39 436.455 365.483 439.609C366.627 440.473 366.627 440.473 367.793 441.354C369.516 442.661 371.231 443.98 372.937 445.309C376.218 447.856 379.528 450.362 382.842 452.865C389.835 458.155 396.801 463.48 403.75 468.828C404.855 469.672 405.96 470.515 407.099 471.384C408.155 472.194 409.21 473.005 410.297 473.84C411.234 474.556 412.17 475.272 413.134 476.01C424.356 485.249 429.08 497.772 434.043 511.043C434.52 512.304 434.997 513.566 435.489 514.866C437.061 519.025 438.626 523.187 440.19 527.349C441.862 531.775 443.535 536.2 445.209 540.626C446.381 543.725 447.552 546.824 448.722 549.923C455.597 568.122 462.545 586.292 469.492 604.463C471.28 609.139 473.067 613.815 474.853 618.492C475.919 621.28 476.984 624.068 478.05 626.855C478.984 629.298 479.914 631.741 480.843 634.186C481.666 636.34 482.502 638.489 483.353 640.632C486.753 649.3 486.753 649.3 484.766 654.766C482.71 656.821 480.751 656.303 477.889 656.35C476.709 656.371 475.529 656.393 474.313 656.414C468.864 656.474 463.414 656.528 457.965 656.559C455.101 656.581 452.238 656.617 449.375 656.668C445.236 656.741 441.098 656.769 436.958 656.789C435.063 656.834 435.063 656.834 433.129 656.88C417.336 656.831 405.518 648.146 394.453 637.5C363.974 605.346 349.509 556.782 348.814 513.336C348.974 512.235 349.133 511.134 349.297 510C354.272 506.683 358.149 506.521 363.906 507.344C371.445 509.783 376.963 513.804 381.172 520.625C382.64 524.671 383.521 528.787 384.409 532.993C386.639 542.535 389.203 550.285 395.781 557.812C397.04 539.345 393.172 518.457 380.973 503.948C377.661 500.477 374.262 497.131 370.796 493.813C369.648 492.684 368.5 491.555 367.317 490.392C361.333 484.543 355.233 478.882 348.862 473.457C343.148 468.383 338.848 463.218 337.344 455.547C337.356 448.491 338.182 442.632 342.656 436.953C347.59 433.664 351.545 433.427 357.266 434.297Z" fill="#FAC310"/>
<path d="M577.734 329.375C587.573 333.246 595.868 337.545 601.641 346.641C602.149 347.399 602.658 348.157 603.181 348.939C604.807 353.332 604.286 357.567 604.048 362.163C603.805 370.348 604.516 375.877 609.355 382.77C612.947 388.187 613.065 394.784 612.266 401.094C609.279 410.832 604.359 417.405 595.581 422.676C590.199 425.416 586.141 426.516 580.142 426.494C579.096 426.494 578.049 426.494 576.972 426.494C573.795 426.33 570.889 425.777 567.773 425.166C561.166 424.303 557.807 427.128 552.661 430.971C546.821 435.112 539.906 436.352 532.812 436.118C524.494 434.699 517.384 430.602 512.158 424.004C503.146 410.422 503.146 410.422 503.531 403.179C505.043 398.716 507.387 396.082 510.498 392.544C511.716 391.133 512.932 389.72 514.145 388.305C514.777 387.572 515.408 386.839 516.059 386.084C519.204 382.368 522.198 378.537 525.19 374.697C525.797 373.921 526.404 373.145 527.029 372.345C528.264 370.764 529.497 369.183 530.731 367.601C534.368 362.941 538.025 358.297 541.682 353.652C544.89 349.575 548.084 345.487 551.26 341.385C551.926 340.528 552.592 339.671 553.278 338.789C554.56 337.139 555.838 335.485 557.112 333.829C563.782 325.263 567.81 326.49 577.734 329.375Z" fill="#FAC310"/>
<path d="M474.4 335.927C480.093 338.092 483.276 342.229 487.256 346.724C488.494 348.087 488.494 348.087 489.756 349.479C492.093 352.061 494.409 354.659 496.719 357.266C498.203 358.927 498.203 358.927 499.717 360.622C501.182 362.281 502.635 363.95 504.07 365.634C505.455 367.24 506.881 368.811 508.335 370.355C513.879 376.36 513.879 376.36 514.482 381.089C514.236 382.445 514.236 382.445 513.984 383.828C511.793 384.705 509.602 385.581 507.344 386.484C501.95 382.275 497.518 377.863 493.092 372.658C488.163 367.033 482.999 361.624 477.858 356.192C477.075 355.36 476.291 354.528 475.484 353.67C474.778 352.924 474.073 352.178 473.345 351.409C470.597 348.29 468.905 346.104 468.496 341.909C468.936 337.622 469.968 336.062 474.4 335.927Z" fill="#FAC310"/>
<path d="M484.766 318.75C491.347 319.271 497.398 321.487 503.588 323.647C504.602 323.996 505.616 324.345 506.661 324.704C508.792 325.438 510.921 326.175 513.05 326.915C516.315 328.049 519.582 329.175 522.851 330.298C524.924 331.014 526.998 331.73 529.071 332.446C530.049 332.784 531.027 333.121 532.035 333.469C538.906 335.859 538.906 335.859 541.875 337.344C543.037 339.751 543.037 339.751 543.203 342.656C540.557 345.494 540.557 345.494 537.891 347.969C526.353 345.059 515.213 341.29 504.023 337.261C502.332 336.661 500.641 336.062 498.95 335.463C497.351 334.89 495.752 334.318 494.104 333.728C492.66 333.211 491.216 332.693 489.728 332.161C486.094 330.703 486.094 330.703 482.109 328.047C481.694 324.727 481.694 324.727 482.109 321.406C482.986 320.53 483.862 319.653 484.766 318.75Z" fill="#FAC310"/>
</svg>
