<svg width="683" height="683" viewBox="0 0 683 683" fill="none" xmlns="http://www.w3.org/2000/svg">
<g clip-path="url(#clip0_629_72)">
<path d="M265.722 -16.5768C246.854 -11.4765 230.398 1.69918 222.028 18.4167C219.333 23.8003 216.779 30.459 216.212 33.0091L215.36 37.8261L187.981 38.2511C157.906 38.6761 156.771 38.9595 149.819 48.4516C146.982 52.2768 146.84 53.9769 146.84 105.83V159.382L150.954 164.624C158.473 174.541 151.664 174.116 284.306 173.691C402.763 173.266 404.181 173.266 408.011 170.291C410.139 168.733 413.26 165.616 414.821 163.491C417.658 159.807 417.8 157.541 418.226 108.096C418.651 50.435 418.651 49.8684 409.146 42.7846L403.897 38.6761L376.518 38.2511L349.28 37.8261L348.429 33.0091C347.861 30.459 345.308 23.8003 342.612 18.4167C328.71 -9.20972 295.23 -24.5105 265.722 -16.5768Z" fill="#FAC310"/>
<path d="M64.701 73.528C55.9055 75.6531 42.9958 83.1619 36.7538 89.9622C33.6328 93.3624 28.9513 100.446 26.5396 105.688L22 115.18V355.459V595.597L27.249 606.364C33.6328 619.256 41.8609 627.19 55.0543 633.424L64.5592 637.957L248.698 638.382L432.838 638.666L436.242 635.266C440.924 630.59 440.924 624.073 436.242 619.54L432.838 615.998H253.096C116.198 615.998 72.0779 615.573 67.5383 614.298C59.7358 612.031 47.9611 600.272 45.6913 592.48C43.2796 583.98 43.2796 126.656 45.6913 118.155C47.9611 110.363 59.7358 98.6043 67.5383 96.3375C71.0849 95.3458 82.1503 94.6375 94.918 94.6375C115.914 94.6375 116.623 94.4958 119.886 91.0956C122.156 88.9705 123.433 85.9953 123.433 83.3035C123.433 80.6117 122.156 77.6366 119.886 75.5115C116.481 71.9696 116.056 71.9696 93.3575 72.1113C80.5898 72.253 67.822 72.8196 64.701 73.528Z" fill="#FAC310"/>
<path d="M444.754 75.3697C440.073 80.0449 440.073 86.5619 444.754 91.0955C448.017 94.4957 448.726 94.6374 469.722 94.6374C482.49 94.6374 493.555 95.3457 497.102 96.3375C504.904 98.6042 516.679 110.363 518.949 118.155C520.226 122.547 520.651 151.449 520.651 232.628V341.292L524.198 344.692C528.738 349.367 535.263 349.367 539.945 344.692L543.491 341.15L543.066 228.236L542.64 115.18L538.101 105.688C531.859 92.5123 523.914 84.2952 511.005 77.9198L500.223 72.6779L474.404 72.2529L448.443 71.6862L444.754 75.3697Z" fill="#FAC310"/>
<path d="M80.1642 119.289C74.3478 121.839 68.3895 129.064 67.3964 134.731C66.9708 137.281 66.829 238.153 66.9708 359.001L67.3964 578.738L71.5105 583.979C79.0293 593.897 68.9569 593.33 237.633 593.33H390.279L393.683 589.788C398.365 585.255 398.365 578.738 393.683 574.204L390.279 570.662H239.761H89.3853V355.318V139.973H102.862C115.346 139.973 116.765 139.69 119.886 136.431C124.568 131.898 124.568 125.381 119.886 120.847C116.623 117.447 115.63 117.305 100.451 117.305C90.3784 117.447 82.8596 118.155 80.1642 119.289Z" fill="#FAC310"/>
<path d="M444.754 120.705C440.073 125.38 440.073 131.897 444.754 136.431C447.875 139.69 449.294 139.973 461.778 139.973H475.255V228.378V316.924L478.518 320.749C483.199 325.991 490.009 325.991 494.69 320.749L497.953 316.924V226.252C497.953 125.806 498.237 129.489 488.59 122.122C483.483 118.155 482.49 118.013 465.892 117.588C448.726 117.022 448.301 117.163 444.754 120.705Z" fill="#FAC310"/>
<path d="M254.515 220.161C253.522 220.586 241.463 234.47 227.561 251.187L202.309 281.505L193.513 273.147C186.562 266.488 183.725 264.646 180.178 264.646C174.22 264.646 168.829 270.172 168.829 276.264C168.829 280.089 170.957 282.922 183.441 295.39C195.499 307.432 198.762 309.982 202.309 309.982C204.721 309.982 207.558 309.132 208.835 308.14C210.111 307.29 224.582 290.289 241.038 270.597C273.525 231.495 274.518 229.794 267.424 222.852C264.303 219.594 258.771 218.461 254.515 220.161Z" fill="#FAC310"/>
<path d="M138.328 234.186L134.782 237.586V287.314V337.042L138.328 340.442L141.733 343.984H191.527H241.321L244.726 340.442C250.968 334.35 248.84 321.599 240.896 318.341C237.491 316.924 235.931 317.066 231.817 318.907C227.703 320.891 221.461 321.316 192.237 321.316H157.48V287.314V253.312H176.064H194.648L198.762 249.204C201.032 246.937 202.876 243.678 202.876 241.978C202.876 240.278 201.032 237.02 198.762 234.753L194.648 230.644H168.12C142.017 230.644 141.733 230.644 138.328 234.186Z" fill="#FAC310"/>
<path d="M285.867 256.854C283.597 258.979 282.32 261.954 282.32 264.646C282.32 267.338 283.597 270.313 285.867 272.438L289.271 275.98H356.089H422.907L426.312 272.438C428.582 270.313 429.859 267.338 429.859 264.646C429.859 261.954 428.582 258.979 426.312 256.854L422.907 253.312H356.089H289.271L285.867 256.854Z" fill="#FAC310"/>
<path d="M285.867 302.19C283.597 304.315 282.32 307.29 282.32 309.982C282.32 312.674 283.597 315.649 285.867 317.774C289.271 321.316 289.555 321.316 316.367 321.316C343.18 321.316 343.463 321.316 346.868 317.774C349.138 315.649 350.415 312.674 350.415 309.982C350.415 307.29 349.138 304.315 346.868 302.19C343.463 298.648 343.18 298.648 316.367 298.648C289.555 298.648 289.271 298.648 285.867 302.19Z" fill="#FAC310"/>
<path d="M439.08 346.109C420.354 350.076 406.025 357.868 391.839 371.468C335.803 425.163 360.062 517.818 452.273 602.397C481.781 629.457 524.907 661.333 532 661.333C539.094 661.333 582.504 629.315 611.728 602.397C702.095 519.093 727.205 429.555 675.283 374.585C664.501 363.11 649.747 353.759 634.71 348.801C623.645 345.259 620.098 344.692 605.77 344.834C591.867 344.834 588.037 345.4 579.95 348.517C565.48 353.901 555.408 360.56 543.066 372.744L531.859 383.652L522.354 374.16C497.528 348.942 469.297 339.45 439.08 346.109ZM519.658 443.581C523.914 445.422 525.333 448.114 540.37 483.674C549.308 504.642 556.969 522.351 557.678 523.06C558.245 523.768 561.934 517.818 565.906 510.026C569.878 502.234 574.56 494.725 576.262 493.591C578.816 491.75 583.497 491.325 598.393 491.325C617.403 491.325 621.658 492.175 625.205 496.85C628.042 500.533 627.333 506.767 623.503 510.451C620.24 513.709 619.105 513.993 604.635 513.993H589.313L577.539 536.66C570.729 549.978 564.345 560.32 562.359 561.595C558.103 564.428 551.01 563.012 548.457 558.903C547.322 557.203 539.519 539.494 531.149 519.659C522.779 499.825 515.402 482.966 514.835 482.258C514.268 481.549 510.579 487.499 506.607 495.292C502.635 503.084 497.953 510.592 496.251 511.726C491.711 514.984 446.173 514.984 441.633 511.867C435.391 507.476 436.384 496.142 443.477 492.883C445.464 492.033 454.685 491.325 465.324 491.325H483.483L495.4 468.373C503.77 451.939 508.167 444.714 510.721 443.581C515.119 441.455 514.126 441.314 519.658 443.581Z" fill="#FAC310"/>
<path d="M252.103 392.578C250.401 394.278 238.484 408.304 225.717 423.605L202.309 451.656L193.513 443.156C183.299 433.38 178.334 432.105 172.376 438.197C165.566 444.856 167.978 450.523 184.718 466.815C196.493 478.291 201.458 481.124 206.849 479.424C208.409 478.857 223.447 461.857 240.328 441.597C273.666 401.503 274.66 399.945 267.424 392.861C263.027 388.328 256.359 388.186 252.103 392.578Z" fill="#FAC310"/>
<path d="M138.328 404.195L134.782 407.595V457.323V507.05L138.328 510.451L141.733 513.992H191.527H241.321L244.726 510.451C250.968 504.359 248.84 491.608 240.896 488.349C237.491 486.933 235.931 487.074 231.817 488.916C227.703 490.9 221.461 491.325 192.237 491.325H157.48V457.323V423.321H176.064H194.648L198.762 419.213C201.032 416.946 202.876 413.687 202.876 411.987C202.876 410.287 201.032 407.029 198.762 404.762L194.648 400.653H168.12C142.017 400.653 141.733 400.653 138.328 404.195Z" fill="#FAC310"/>
<path d="M285.867 426.863C283.597 428.988 282.32 431.963 282.32 434.655C282.32 437.347 283.597 440.322 285.867 442.447C289.13 445.847 289.839 445.989 310.693 445.989C331.547 445.989 332.256 445.847 335.519 442.447C337.789 440.322 339.066 437.347 339.066 434.655C339.066 431.963 337.789 428.988 335.519 426.863C332.256 423.463 331.547 423.321 310.693 423.321C289.839 423.321 289.13 423.463 285.867 426.863Z" fill="#FAC310"/>
<path d="M285.867 472.199C283.597 474.324 282.32 477.299 282.32 479.991C282.32 482.683 283.597 485.658 285.867 487.783C289.13 491.183 289.839 491.325 310.693 491.325C331.547 491.325 332.256 491.183 335.519 487.783C337.789 485.658 339.066 482.683 339.066 479.991C339.066 477.299 337.789 474.324 335.519 472.199C332.256 468.799 331.547 468.657 310.693 468.657C289.839 468.657 289.13 468.799 285.867 472.199Z" fill="#FAC310"/>
</g>
<defs>
<clipPath id="clip0_629_72">
<rect width="682.667" height="682.667" fill="white"/>
</clipPath>
</defs>
</svg>
